<mxfile host="app.diagrams.net" modified="2023-04-09T22:53:18.922Z" agent="Mozilla/5.0 (Windows NT 10.0; Win64; x64) AppleWebKit/537.36 (KHTML, like Gecko) Chrome/111.0.0.0 Safari/537.36" etag="H4in1EppxhAZAZsiTkLr" version="21.1.2" type="github">
  <diagram name="Page-1" id="hONVoxSUDX3TorvVt3Ye">
    <mxGraphModel dx="913" dy="505" grid="1" gridSize="10" guides="1" tooltips="1" connect="1" arrows="1" fold="1" page="1" pageScale="1" pageWidth="850" pageHeight="1100" math="0" shadow="0">
      <root>
        <mxCell id="0" />
        <mxCell id="1" parent="0" />
        <mxCell id="bD_cOo_kyxtr31O9QyHq-62" style="edgeStyle=orthogonalEdgeStyle;rounded=0;orthogonalLoop=1;jettySize=auto;html=1;endArrow=none;endFill=0;" edge="1" parent="1" source="bD_cOo_kyxtr31O9QyHq-40" target="bD_cOo_kyxtr31O9QyHq-47">
          <mxGeometry relative="1" as="geometry" />
        </mxCell>
        <mxCell id="bD_cOo_kyxtr31O9QyHq-64" style="edgeStyle=orthogonalEdgeStyle;rounded=0;orthogonalLoop=1;jettySize=auto;html=1;endArrow=none;endFill=0;" edge="1" parent="1" source="bD_cOo_kyxtr31O9QyHq-40" target="bD_cOo_kyxtr31O9QyHq-49">
          <mxGeometry relative="1" as="geometry" />
        </mxCell>
        <mxCell id="bD_cOo_kyxtr31O9QyHq-83" style="edgeStyle=orthogonalEdgeStyle;rounded=0;orthogonalLoop=1;jettySize=auto;html=1;" edge="1" parent="1" source="bD_cOo_kyxtr31O9QyHq-40" target="bD_cOo_kyxtr31O9QyHq-52">
          <mxGeometry relative="1" as="geometry" />
        </mxCell>
        <mxCell id="bD_cOo_kyxtr31O9QyHq-99" style="edgeStyle=orthogonalEdgeStyle;rounded=0;orthogonalLoop=1;jettySize=auto;html=1;endArrow=diamondThin;endFill=1;" edge="1" parent="1" source="bD_cOo_kyxtr31O9QyHq-40" target="bD_cOo_kyxtr31O9QyHq-95">
          <mxGeometry relative="1" as="geometry" />
        </mxCell>
        <mxCell id="bD_cOo_kyxtr31O9QyHq-40" value="&amp;lt;&amp;lt;core&amp;gt;&amp;gt;&lt;br&gt;Barbershop" style="swimlane;fontStyle=0;childLayout=stackLayout;horizontal=1;startSize=26;fillColor=none;horizontalStack=0;resizeParent=1;resizeParentMax=0;resizeLast=0;collapsible=1;marginBottom=0;whiteSpace=wrap;html=1;" vertex="1" parent="1">
          <mxGeometry x="290" y="490" width="140" height="52" as="geometry">
            <mxRectangle x="290" y="490" width="100" height="40" as="alternateBounds" />
          </mxGeometry>
        </mxCell>
        <mxCell id="bD_cOo_kyxtr31O9QyHq-41" value="name : String" style="text;strokeColor=none;fillColor=none;align=left;verticalAlign=top;spacingLeft=4;spacingRight=4;overflow=hidden;rotatable=0;points=[[0,0.5],[1,0.5]];portConstraint=eastwest;whiteSpace=wrap;html=1;" vertex="1" parent="bD_cOo_kyxtr31O9QyHq-40">
          <mxGeometry y="26" width="140" height="26" as="geometry" />
        </mxCell>
        <mxCell id="bD_cOo_kyxtr31O9QyHq-46" value="&amp;lt;&amp;lt;type&amp;gt;&amp;gt;&lt;br&gt;Barber" style="swimlane;fontStyle=0;childLayout=stackLayout;horizontal=1;startSize=26;fillColor=none;horizontalStack=0;resizeParent=1;resizeParentMax=0;resizeLast=0;collapsible=1;marginBottom=0;whiteSpace=wrap;html=1;" vertex="1" parent="1">
          <mxGeometry x="500" y="420" width="140" height="78" as="geometry">
            <mxRectangle x="290" y="490" width="100" height="40" as="alternateBounds" />
          </mxGeometry>
        </mxCell>
        <mxCell id="bD_cOo_kyxtr31O9QyHq-47" value="name : String" style="text;strokeColor=none;fillColor=none;align=left;verticalAlign=top;spacingLeft=4;spacingRight=4;overflow=hidden;rotatable=0;points=[[0,0.5],[1,0.5]];portConstraint=eastwest;whiteSpace=wrap;html=1;" vertex="1" parent="bD_cOo_kyxtr31O9QyHq-46">
          <mxGeometry y="26" width="140" height="26" as="geometry" />
        </mxCell>
        <mxCell id="bD_cOo_kyxtr31O9QyHq-48" value="barberId : String" style="text;strokeColor=none;fillColor=none;align=left;verticalAlign=top;spacingLeft=4;spacingRight=4;overflow=hidden;rotatable=0;points=[[0,0.5],[1,0.5]];portConstraint=eastwest;whiteSpace=wrap;html=1;" vertex="1" parent="bD_cOo_kyxtr31O9QyHq-46">
          <mxGeometry y="52" width="140" height="26" as="geometry" />
        </mxCell>
        <mxCell id="bD_cOo_kyxtr31O9QyHq-61" style="edgeStyle=orthogonalEdgeStyle;rounded=0;orthogonalLoop=1;jettySize=auto;html=1;endArrow=none;endFill=0;" edge="1" parent="1" source="bD_cOo_kyxtr31O9QyHq-49" target="bD_cOo_kyxtr31O9QyHq-54">
          <mxGeometry relative="1" as="geometry" />
        </mxCell>
        <mxCell id="bD_cOo_kyxtr31O9QyHq-63" style="edgeStyle=orthogonalEdgeStyle;rounded=0;orthogonalLoop=1;jettySize=auto;html=1;entryX=1;entryY=0.5;entryDx=0;entryDy=0;endArrow=none;endFill=0;" edge="1" parent="1" source="bD_cOo_kyxtr31O9QyHq-49" target="bD_cOo_kyxtr31O9QyHq-56">
          <mxGeometry relative="1" as="geometry" />
        </mxCell>
        <mxCell id="bD_cOo_kyxtr31O9QyHq-49" value="&amp;lt;&amp;lt;type&amp;gt;&amp;gt;&lt;br&gt;Booking" style="swimlane;fontStyle=0;childLayout=stackLayout;horizontal=1;startSize=26;fillColor=none;horizontalStack=0;resizeParent=1;resizeParentMax=0;resizeLast=0;collapsible=1;marginBottom=0;whiteSpace=wrap;html=1;" vertex="1" parent="1">
          <mxGeometry x="290" y="610" width="140" height="78" as="geometry">
            <mxRectangle x="290" y="490" width="100" height="40" as="alternateBounds" />
          </mxGeometry>
        </mxCell>
        <mxCell id="bD_cOo_kyxtr31O9QyHq-50" value="bookingId : String" style="text;strokeColor=none;fillColor=none;align=left;verticalAlign=top;spacingLeft=4;spacingRight=4;overflow=hidden;rotatable=0;points=[[0,0.5],[1,0.5]];portConstraint=eastwest;whiteSpace=wrap;html=1;" vertex="1" parent="bD_cOo_kyxtr31O9QyHq-49">
          <mxGeometry y="26" width="140" height="26" as="geometry" />
        </mxCell>
        <mxCell id="bD_cOo_kyxtr31O9QyHq-51" value="date : DateRange" style="text;strokeColor=none;fillColor=none;align=left;verticalAlign=top;spacingLeft=4;spacingRight=4;overflow=hidden;rotatable=0;points=[[0,0.5],[1,0.5]];portConstraint=eastwest;whiteSpace=wrap;html=1;" vertex="1" parent="bD_cOo_kyxtr31O9QyHq-49">
          <mxGeometry y="52" width="140" height="26" as="geometry" />
        </mxCell>
        <mxCell id="bD_cOo_kyxtr31O9QyHq-52" value="&amp;lt;&amp;lt;type&amp;gt;&amp;gt;&lt;br&gt;Service" style="swimlane;fontStyle=0;childLayout=stackLayout;horizontal=1;startSize=26;fillColor=none;horizontalStack=0;resizeParent=1;resizeParentMax=0;resizeLast=0;collapsible=1;marginBottom=0;whiteSpace=wrap;html=1;" vertex="1" parent="1">
          <mxGeometry x="500" y="610" width="140" height="78" as="geometry">
            <mxRectangle x="290" y="490" width="100" height="40" as="alternateBounds" />
          </mxGeometry>
        </mxCell>
        <mxCell id="bD_cOo_kyxtr31O9QyHq-54" value="name : String" style="text;strokeColor=none;fillColor=none;align=left;verticalAlign=top;spacingLeft=4;spacingRight=4;overflow=hidden;rotatable=0;points=[[0,0.5],[1,0.5]];portConstraint=eastwest;whiteSpace=wrap;html=1;" vertex="1" parent="bD_cOo_kyxtr31O9QyHq-52">
          <mxGeometry y="26" width="140" height="26" as="geometry" />
        </mxCell>
        <mxCell id="bD_cOo_kyxtr31O9QyHq-53" value="serviceId : String" style="text;strokeColor=none;fillColor=none;align=left;verticalAlign=top;spacingLeft=4;spacingRight=4;overflow=hidden;rotatable=0;points=[[0,0.5],[1,0.5]];portConstraint=eastwest;whiteSpace=wrap;html=1;" vertex="1" parent="bD_cOo_kyxtr31O9QyHq-52">
          <mxGeometry y="52" width="140" height="26" as="geometry" />
        </mxCell>
        <mxCell id="bD_cOo_kyxtr31O9QyHq-100" style="edgeStyle=orthogonalEdgeStyle;rounded=0;orthogonalLoop=1;jettySize=auto;html=1;entryX=0.5;entryY=0;entryDx=0;entryDy=0;endArrow=diamondThin;endFill=1;" edge="1" parent="1" source="bD_cOo_kyxtr31O9QyHq-55" target="bD_cOo_kyxtr31O9QyHq-97">
          <mxGeometry relative="1" as="geometry" />
        </mxCell>
        <mxCell id="bD_cOo_kyxtr31O9QyHq-55" value="&amp;lt;&amp;lt;core&amp;gt;&amp;gt;&lt;br&gt;Customer" style="swimlane;fontStyle=0;childLayout=stackLayout;horizontal=1;startSize=26;fillColor=none;horizontalStack=0;resizeParent=1;resizeParentMax=0;resizeLast=0;collapsible=1;marginBottom=0;whiteSpace=wrap;html=1;" vertex="1" parent="1">
          <mxGeometry x="80" y="610" width="140" height="78" as="geometry">
            <mxRectangle x="290" y="490" width="100" height="40" as="alternateBounds" />
          </mxGeometry>
        </mxCell>
        <mxCell id="bD_cOo_kyxtr31O9QyHq-56" value="name : String" style="text;strokeColor=none;fillColor=none;align=left;verticalAlign=top;spacingLeft=4;spacingRight=4;overflow=hidden;rotatable=0;points=[[0,0.5],[1,0.5]];portConstraint=eastwest;whiteSpace=wrap;html=1;" vertex="1" parent="bD_cOo_kyxtr31O9QyHq-55">
          <mxGeometry y="26" width="140" height="26" as="geometry" />
        </mxCell>
        <mxCell id="bD_cOo_kyxtr31O9QyHq-57" value="customerId : String" style="text;strokeColor=none;fillColor=none;align=left;verticalAlign=top;spacingLeft=4;spacingRight=4;overflow=hidden;rotatable=0;points=[[0,0.5],[1,0.5]];portConstraint=eastwest;whiteSpace=wrap;html=1;" vertex="1" parent="bD_cOo_kyxtr31O9QyHq-55">
          <mxGeometry y="52" width="140" height="26" as="geometry" />
        </mxCell>
        <mxCell id="bD_cOo_kyxtr31O9QyHq-65" style="edgeStyle=orthogonalEdgeStyle;rounded=0;orthogonalLoop=1;jettySize=auto;html=1;endArrow=none;endFill=0;" edge="1" parent="1" source="bD_cOo_kyxtr31O9QyHq-41" target="bD_cOo_kyxtr31O9QyHq-55">
          <mxGeometry relative="1" as="geometry" />
        </mxCell>
        <mxCell id="bD_cOo_kyxtr31O9QyHq-84" value="1" style="text;html=1;strokeColor=none;fillColor=none;align=center;verticalAlign=middle;whiteSpace=wrap;rounded=0;" vertex="1" parent="1">
          <mxGeometry x="430" y="630" width="20" height="20" as="geometry" />
        </mxCell>
        <mxCell id="bD_cOo_kyxtr31O9QyHq-85" value="1..*" style="text;html=1;strokeColor=none;fillColor=none;align=center;verticalAlign=middle;whiteSpace=wrap;rounded=0;" vertex="1" parent="1">
          <mxGeometry x="480" y="630" width="20" height="20" as="geometry" />
        </mxCell>
        <mxCell id="bD_cOo_kyxtr31O9QyHq-86" value="*" style="text;html=1;strokeColor=none;fillColor=none;align=center;verticalAlign=middle;whiteSpace=wrap;rounded=0;" vertex="1" parent="1">
          <mxGeometry x="550" y="590" width="20" height="20" as="geometry" />
        </mxCell>
        <mxCell id="bD_cOo_kyxtr31O9QyHq-87" value="1..*" style="text;html=1;strokeColor=none;fillColor=none;align=center;verticalAlign=middle;whiteSpace=wrap;rounded=0;" vertex="1" parent="1">
          <mxGeometry x="480" y="440" width="20" height="20" as="geometry" />
        </mxCell>
        <mxCell id="bD_cOo_kyxtr31O9QyHq-88" value="1" style="text;html=1;strokeColor=none;fillColor=none;align=center;verticalAlign=middle;whiteSpace=wrap;rounded=0;" vertex="1" parent="1">
          <mxGeometry x="360" y="470" width="20" height="20" as="geometry" />
        </mxCell>
        <mxCell id="bD_cOo_kyxtr31O9QyHq-89" value="*" style="text;html=1;strokeColor=none;fillColor=none;align=center;verticalAlign=middle;whiteSpace=wrap;rounded=0;" vertex="1" parent="1">
          <mxGeometry x="360" y="542" width="20" height="20" as="geometry" />
        </mxCell>
        <mxCell id="bD_cOo_kyxtr31O9QyHq-90" value="*" style="text;html=1;strokeColor=none;fillColor=none;align=center;verticalAlign=middle;whiteSpace=wrap;rounded=0;" vertex="1" parent="1">
          <mxGeometry x="357.5" y="590" width="25" height="20" as="geometry" />
        </mxCell>
        <mxCell id="bD_cOo_kyxtr31O9QyHq-91" value="*" style="text;html=1;strokeColor=none;fillColor=none;align=center;verticalAlign=middle;whiteSpace=wrap;rounded=0;" vertex="1" parent="1">
          <mxGeometry x="270" y="630" width="20" height="20" as="geometry" />
        </mxCell>
        <mxCell id="bD_cOo_kyxtr31O9QyHq-92" value="*" style="text;html=1;strokeColor=none;fillColor=none;align=center;verticalAlign=middle;whiteSpace=wrap;rounded=0;" vertex="1" parent="1">
          <mxGeometry x="150" y="590" width="20" height="20" as="geometry" />
        </mxCell>
        <mxCell id="bD_cOo_kyxtr31O9QyHq-93" value="*" style="text;html=1;strokeColor=none;fillColor=none;align=center;verticalAlign=middle;whiteSpace=wrap;rounded=0;" vertex="1" parent="1">
          <mxGeometry x="270" y="530" width="20" height="20" as="geometry" />
        </mxCell>
        <mxCell id="bD_cOo_kyxtr31O9QyHq-94" value="1" style="text;html=1;strokeColor=none;fillColor=none;align=center;verticalAlign=middle;whiteSpace=wrap;rounded=0;" vertex="1" parent="1">
          <mxGeometry x="220" y="630" width="20" height="20" as="geometry" />
        </mxCell>
        <mxCell id="bD_cOo_kyxtr31O9QyHq-95" value="&amp;lt;&amp;lt;interface type&amp;gt;&amp;gt;&lt;br&gt;IBarbershopMgt" style="swimlane;fontStyle=0;childLayout=stackLayout;horizontal=1;startSize=26;fillColor=none;horizontalStack=0;resizeParent=1;resizeParentMax=0;resizeLast=0;collapsible=1;marginBottom=0;whiteSpace=wrap;html=1;" vertex="1" parent="1">
          <mxGeometry x="80" y="438" width="140" height="52" as="geometry">
            <mxRectangle x="290" y="490" width="100" height="40" as="alternateBounds" />
          </mxGeometry>
        </mxCell>
        <mxCell id="bD_cOo_kyxtr31O9QyHq-97" value="&amp;lt;&amp;lt;interface type&amp;gt;&amp;gt;&lt;br&gt;ICustomerMgt" style="swimlane;fontStyle=0;childLayout=stackLayout;horizontal=1;startSize=26;fillColor=none;horizontalStack=0;resizeParent=1;resizeParentMax=0;resizeLast=0;collapsible=1;marginBottom=0;whiteSpace=wrap;html=1;" vertex="1" parent="1">
          <mxGeometry x="80" y="720" width="140" height="52" as="geometry">
            <mxRectangle x="290" y="490" width="100" height="40" as="alternateBounds" />
          </mxGeometry>
        </mxCell>
      </root>
    </mxGraphModel>
  </diagram>
</mxfile>
